<mxfile host="app.diagrams.net" modified="2024-05-27T23:24:16.239Z" agent="Mozilla/5.0 (Windows NT 10.0; Win64; x64) AppleWebKit/537.36 (KHTML, like Gecko) Chrome/124.0.0.0 Safari/537.36" version="24.4.9" etag="vu63ajq_gSyBS4iWrBuo" type="github">
  <diagram name="PÃ¡gina-1" id="DqUyj6j1neobpzKk8myx">
    <mxGraphModel>
      <root>
        <mxCell id="0" />
        <mxCell id="1" parent="0" />
      </root>
    </mxGraphModel>
  </diagram>
</mxfile>
